<mxfile host="app.diagrams.net" modified="2024-05-11T16:04:15.900Z" agent="Mozilla/5.0 (Windows NT 10.0; Win64; x64) AppleWebKit/537.36 (KHTML, like Gecko) Chrome/109.0.0.0 Safari/537.36" etag="OIrA1aldPOWv7Mwnb1JU" version="24.4.0" type="github">
  <diagram name="第 1 页" id="8UBDZhHqwM8WWdr9Ulw3">
    <mxGraphModel dx="548" dy="307" grid="1" gridSize="10" guides="1" tooltips="1" connect="1" arrows="1" fold="1" page="1" pageScale="1" pageWidth="1169" pageHeight="827" background="#ffffff" math="0" shadow="0">
      <root>
        <mxCell id="0" />
        <mxCell id="1" parent="0" />
        <mxCell id="824p-lf1ZnNUyni7ajF0-91" value="价格申报中" style="rounded=0;whiteSpace=wrap;html=1;align=center;fillColor=none;horizontal=1;verticalAlign=top;fontColor=#ff8b36;fontStyle=1;fontSize=17;strokeWidth=2;strokeColor=#ff8c37;" vertex="1" parent="1">
          <mxGeometry x="170" y="240" width="270" height="250" as="geometry" />
        </mxCell>
        <mxCell id="824p-lf1ZnNUyni7ajF0-81" value="已下架/终止" style="rounded=0;whiteSpace=wrap;html=1;align=center;fillColor=none;horizontal=1;verticalAlign=top;fontColor=#ff8b36;fontStyle=1;fontSize=17;strokeWidth=2;strokeColor=#ff8c37;" vertex="1" parent="1">
          <mxGeometry x="1313.08" y="240" width="140" height="250" as="geometry" />
        </mxCell>
        <mxCell id="824p-lf1ZnNUyni7ajF0-69" value="已发布到站点" style="rounded=0;whiteSpace=wrap;html=1;align=center;fillColor=none;horizontal=1;verticalAlign=top;fontColor=#ff8b36;fontStyle=1;fontSize=17;strokeWidth=2;strokeColor=#ff8c37;" vertex="1" parent="1">
          <mxGeometry x="893.08" y="240" width="410" height="250" as="geometry" />
        </mxCell>
        <mxCell id="824p-lf1ZnNUyni7ajF0-42" value="未发布到站点" style="rounded=0;whiteSpace=wrap;html=1;align=center;fillColor=none;horizontal=1;verticalAlign=top;fontColor=#ff8b36;fontStyle=1;fontSize=17;strokeWidth=2;strokeColor=#ff8c37;" vertex="1" parent="1">
          <mxGeometry x="453.08" y="240" width="430" height="250" as="geometry" />
        </mxCell>
        <mxCell id="824p-lf1ZnNUyni7ajF0-5" style="edgeStyle=orthogonalEdgeStyle;rounded=0;orthogonalLoop=1;jettySize=auto;html=1;entryX=0;entryY=0.5;entryDx=0;entryDy=0;" edge="1" parent="1" source="824p-lf1ZnNUyni7ajF0-1" target="824p-lf1ZnNUyni7ajF0-4">
          <mxGeometry relative="1" as="geometry" />
        </mxCell>
        <mxCell id="824p-lf1ZnNUyni7ajF0-1" value="选品" style="rounded=1;whiteSpace=wrap;html=1;fillColor=#d5e8d4;strokeColor=#82b366;" vertex="1" parent="1">
          <mxGeometry x="10" y="400" width="50" height="40" as="geometry" />
        </mxCell>
        <mxCell id="824p-lf1ZnNUyni7ajF0-92" style="edgeStyle=orthogonalEdgeStyle;rounded=0;orthogonalLoop=1;jettySize=auto;html=1;entryX=0;entryY=0.5;entryDx=0;entryDy=0;" edge="1" parent="1" source="824p-lf1ZnNUyni7ajF0-4" target="824p-lf1ZnNUyni7ajF0-86">
          <mxGeometry relative="1" as="geometry" />
        </mxCell>
        <mxCell id="824p-lf1ZnNUyni7ajF0-94" style="edgeStyle=orthogonalEdgeStyle;rounded=0;orthogonalLoop=1;jettySize=auto;html=1;entryX=0;entryY=0.5;entryDx=0;entryDy=0;" edge="1" parent="1" source="824p-lf1ZnNUyni7ajF0-4" target="824p-lf1ZnNUyni7ajF0-7">
          <mxGeometry relative="1" as="geometry" />
        </mxCell>
        <mxCell id="824p-lf1ZnNUyni7ajF0-4" value="创建产品" style="rounded=0;whiteSpace=wrap;html=1;" vertex="1" parent="1">
          <mxGeometry x="90" y="400" width="70" height="40" as="geometry" />
        </mxCell>
        <mxCell id="824p-lf1ZnNUyni7ajF0-20" style="edgeStyle=orthogonalEdgeStyle;rounded=0;orthogonalLoop=1;jettySize=auto;html=1;entryX=0.5;entryY=1;entryDx=0;entryDy=0;" edge="1" parent="1" source="824p-lf1ZnNUyni7ajF0-7" target="824p-lf1ZnNUyni7ajF0-19">
          <mxGeometry relative="1" as="geometry" />
        </mxCell>
        <mxCell id="824p-lf1ZnNUyni7ajF0-21" value="失败" style="edgeLabel;html=1;align=center;verticalAlign=middle;resizable=0;points=[];" vertex="1" connectable="0" parent="824p-lf1ZnNUyni7ajF0-20">
          <mxGeometry x="-0.2914" y="2" relative="1" as="geometry">
            <mxPoint x="2" y="-2" as="offset" />
          </mxGeometry>
        </mxCell>
        <mxCell id="824p-lf1ZnNUyni7ajF0-95" style="edgeStyle=orthogonalEdgeStyle;rounded=0;orthogonalLoop=1;jettySize=auto;html=1;entryX=0;entryY=0.5;entryDx=0;entryDy=0;" edge="1" parent="1" source="824p-lf1ZnNUyni7ajF0-7" target="824p-lf1ZnNUyni7ajF0-29">
          <mxGeometry relative="1" as="geometry" />
        </mxCell>
        <mxCell id="824p-lf1ZnNUyni7ajF0-96" value="成功" style="edgeLabel;html=1;align=center;verticalAlign=middle;resizable=0;points=[];" vertex="1" connectable="0" parent="824p-lf1ZnNUyni7ajF0-95">
          <mxGeometry x="-0.1323" relative="1" as="geometry">
            <mxPoint as="offset" />
          </mxGeometry>
        </mxCell>
        <mxCell id="824p-lf1ZnNUyni7ajF0-7" value="价格申报" style="rhombus;whiteSpace=wrap;html=1;rounded=0;fillColor=#ffac72;strokeColor=#d79b00;" vertex="1" parent="1">
          <mxGeometry x="310" y="390" width="100" height="60" as="geometry" />
        </mxCell>
        <mxCell id="824p-lf1ZnNUyni7ajF0-19" value="放弃上新" style="rounded=1;whiteSpace=wrap;html=1;fillColor=#f8cecc;strokeColor=#b85450;" vertex="1" parent="1">
          <mxGeometry x="320" y="300" width="80" height="40" as="geometry" />
        </mxCell>
        <mxCell id="824p-lf1ZnNUyni7ajF0-67" value="" style="edgeStyle=orthogonalEdgeStyle;rounded=0;orthogonalLoop=1;jettySize=auto;html=1;entryX=0;entryY=0.5;entryDx=0;entryDy=0;" edge="1" parent="1" source="824p-lf1ZnNUyni7ajF0-27" target="824p-lf1ZnNUyni7ajF0-97">
          <mxGeometry relative="1" as="geometry">
            <mxPoint x="1193.08" y="420" as="targetPoint" />
          </mxGeometry>
        </mxCell>
        <mxCell id="824p-lf1ZnNUyni7ajF0-27" value="更新库存" style="whiteSpace=wrap;html=1;fillColor=#ffe6cc;strokeColor=#d79b00;rounded=0;" vertex="1" parent="1">
          <mxGeometry x="1063.08" y="400" width="90" height="40" as="geometry" />
        </mxCell>
        <mxCell id="824p-lf1ZnNUyni7ajF0-32" value="" style="edgeStyle=orthogonalEdgeStyle;rounded=0;orthogonalLoop=1;jettySize=auto;html=1;" edge="1" parent="1" source="824p-lf1ZnNUyni7ajF0-29" target="824p-lf1ZnNUyni7ajF0-31">
          <mxGeometry relative="1" as="geometry" />
        </mxCell>
        <mxCell id="824p-lf1ZnNUyni7ajF0-35" value="Yes" style="edgeLabel;html=1;align=center;verticalAlign=middle;resizable=0;points=[];" vertex="1" connectable="0" parent="824p-lf1ZnNUyni7ajF0-32">
          <mxGeometry x="-0.3614" y="1" relative="1" as="geometry">
            <mxPoint x="4" y="1" as="offset" />
          </mxGeometry>
        </mxCell>
        <mxCell id="824p-lf1ZnNUyni7ajF0-38" style="edgeStyle=orthogonalEdgeStyle;rounded=0;orthogonalLoop=1;jettySize=auto;html=1;entryX=0;entryY=0.5;entryDx=0;entryDy=0;" edge="1" parent="1" source="824p-lf1ZnNUyni7ajF0-29" target="824p-lf1ZnNUyni7ajF0-37">
          <mxGeometry relative="1" as="geometry" />
        </mxCell>
        <mxCell id="824p-lf1ZnNUyni7ajF0-40" value="No" style="edgeLabel;html=1;align=center;verticalAlign=middle;resizable=0;points=[];" vertex="1" connectable="0" parent="824p-lf1ZnNUyni7ajF0-38">
          <mxGeometry x="-0.3433" relative="1" as="geometry">
            <mxPoint as="offset" />
          </mxGeometry>
        </mxCell>
        <mxCell id="824p-lf1ZnNUyni7ajF0-29" value="商品有库存" style="rhombus;whiteSpace=wrap;html=1;rounded=0;fillColor=#ffe6cc;strokeColor=#d79b00;" vertex="1" parent="1">
          <mxGeometry x="463.08" y="390" width="100" height="60" as="geometry" />
        </mxCell>
        <mxCell id="824p-lf1ZnNUyni7ajF0-34" value="" style="edgeStyle=orthogonalEdgeStyle;rounded=0;orthogonalLoop=1;jettySize=auto;html=1;" edge="1" parent="1" source="824p-lf1ZnNUyni7ajF0-31" target="824p-lf1ZnNUyni7ajF0-33">
          <mxGeometry relative="1" as="geometry" />
        </mxCell>
        <mxCell id="824p-lf1ZnNUyni7ajF0-36" value="Yes" style="edgeLabel;html=1;align=center;verticalAlign=middle;resizable=0;points=[];" vertex="1" connectable="0" parent="824p-lf1ZnNUyni7ajF0-34">
          <mxGeometry x="0.288" y="1" relative="1" as="geometry">
            <mxPoint x="-12" y="1" as="offset" />
          </mxGeometry>
        </mxCell>
        <mxCell id="824p-lf1ZnNUyni7ajF0-39" style="edgeStyle=orthogonalEdgeStyle;rounded=0;orthogonalLoop=1;jettySize=auto;html=1;entryX=1;entryY=0.5;entryDx=0;entryDy=0;" edge="1" parent="1" source="824p-lf1ZnNUyni7ajF0-31" target="824p-lf1ZnNUyni7ajF0-37">
          <mxGeometry relative="1" as="geometry" />
        </mxCell>
        <mxCell id="824p-lf1ZnNUyni7ajF0-41" value="No" style="edgeLabel;html=1;align=center;verticalAlign=middle;resizable=0;points=[];" vertex="1" connectable="0" parent="824p-lf1ZnNUyni7ajF0-39">
          <mxGeometry x="-0.4485" y="3" relative="1" as="geometry">
            <mxPoint x="1" as="offset" />
          </mxGeometry>
        </mxCell>
        <mxCell id="824p-lf1ZnNUyni7ajF0-31" value="无违规信息" style="rhombus;whiteSpace=wrap;html=1;rounded=0;fillColor=#ffe6cc;strokeColor=#d79b00;" vertex="1" parent="1">
          <mxGeometry x="613.08" y="390" width="100" height="60" as="geometry" />
        </mxCell>
        <mxCell id="824p-lf1ZnNUyni7ajF0-48" style="edgeStyle=orthogonalEdgeStyle;rounded=0;orthogonalLoop=1;jettySize=auto;html=1;entryX=0.5;entryY=1;entryDx=0;entryDy=0;" edge="1" parent="1" source="824p-lf1ZnNUyni7ajF0-33" target="824p-lf1ZnNUyni7ajF0-43">
          <mxGeometry relative="1" as="geometry" />
        </mxCell>
        <mxCell id="824p-lf1ZnNUyni7ajF0-50" value="No" style="edgeLabel;html=1;align=center;verticalAlign=middle;resizable=0;points=[];" vertex="1" connectable="0" parent="824p-lf1ZnNUyni7ajF0-48">
          <mxGeometry x="-0.091" relative="1" as="geometry">
            <mxPoint as="offset" />
          </mxGeometry>
        </mxCell>
        <mxCell id="824p-lf1ZnNUyni7ajF0-55" value="" style="edgeStyle=orthogonalEdgeStyle;rounded=0;orthogonalLoop=1;jettySize=auto;html=1;" edge="1" parent="1" source="824p-lf1ZnNUyni7ajF0-33" target="824p-lf1ZnNUyni7ajF0-54">
          <mxGeometry relative="1" as="geometry" />
        </mxCell>
        <mxCell id="824p-lf1ZnNUyni7ajF0-61" value="Yes" style="edgeLabel;html=1;align=center;verticalAlign=middle;resizable=0;points=[];" vertex="1" connectable="0" parent="824p-lf1ZnNUyni7ajF0-55">
          <mxGeometry x="-0.1297" y="-1" relative="1" as="geometry">
            <mxPoint as="offset" />
          </mxGeometry>
        </mxCell>
        <mxCell id="824p-lf1ZnNUyni7ajF0-33" value="买手处理及时" style="rhombus;whiteSpace=wrap;html=1;rounded=0;fillColor=#ffe6cc;strokeColor=#d79b00;" vertex="1" parent="1">
          <mxGeometry x="763.08" y="390" width="100" height="60" as="geometry" />
        </mxCell>
        <mxCell id="824p-lf1ZnNUyni7ajF0-37" value="发布异常" style="rounded=1;whiteSpace=wrap;html=1;fillColor=#f8cecc;strokeColor=#b85450;" vertex="1" parent="1">
          <mxGeometry x="543.08" y="300" width="80" height="40" as="geometry" />
        </mxCell>
        <mxCell id="824p-lf1ZnNUyni7ajF0-43" value="联系买手" style="rounded=1;whiteSpace=wrap;html=1;" vertex="1" parent="1">
          <mxGeometry x="773.08" y="300" width="80" height="40" as="geometry" />
        </mxCell>
        <mxCell id="824p-lf1ZnNUyni7ajF0-54" value="首单商品&lt;div&gt;已采购&lt;/div&gt;" style="rhombus;whiteSpace=wrap;html=1;rounded=0;fillColor=#ffe6cc;strokeColor=#d79b00;" vertex="1" parent="1">
          <mxGeometry x="913.08" y="390" width="100" height="60" as="geometry" />
        </mxCell>
        <mxCell id="824p-lf1ZnNUyni7ajF0-72" value="合规中心" style="rounded=1;whiteSpace=wrap;html=1;" vertex="1" parent="1">
          <mxGeometry x="973.08" y="130" width="90" height="40" as="geometry" />
        </mxCell>
        <mxCell id="824p-lf1ZnNUyni7ajF0-83" style="edgeStyle=orthogonalEdgeStyle;rounded=0;orthogonalLoop=1;jettySize=auto;html=1;entryX=1;entryY=0.5;entryDx=0;entryDy=0;exitX=0.5;exitY=0;exitDx=0;exitDy=0;" edge="1" parent="1" source="824p-lf1ZnNUyni7ajF0-78" target="824p-lf1ZnNUyni7ajF0-72">
          <mxGeometry relative="1" as="geometry">
            <Array as="points">
              <mxPoint x="1383.08" y="400" />
              <mxPoint x="1383.08" y="160" />
            </Array>
          </mxGeometry>
        </mxCell>
        <mxCell id="824p-lf1ZnNUyni7ajF0-90" style="edgeStyle=orthogonalEdgeStyle;rounded=0;orthogonalLoop=1;jettySize=auto;html=1;entryX=0.5;entryY=1;entryDx=0;entryDy=0;" edge="1" parent="1" source="824p-lf1ZnNUyni7ajF0-78" target="824p-lf1ZnNUyni7ajF0-31">
          <mxGeometry relative="1" as="geometry">
            <Array as="points">
              <mxPoint x="1383.08" y="470" />
              <mxPoint x="663.08" y="470" />
            </Array>
          </mxGeometry>
        </mxCell>
        <mxCell id="824p-lf1ZnNUyni7ajF0-78" value="商品违规" style="whiteSpace=wrap;html=1;fillColor=#ffe6cc;strokeColor=#d79b00;rounded=0;" vertex="1" parent="1">
          <mxGeometry x="1333.08" y="400" width="100" height="40" as="geometry" />
        </mxCell>
        <mxCell id="824p-lf1ZnNUyni7ajF0-85" style="edgeStyle=orthogonalEdgeStyle;rounded=0;orthogonalLoop=1;jettySize=auto;html=1;entryX=0;entryY=0.5;entryDx=0;entryDy=0;exitX=0.5;exitY=0;exitDx=0;exitDy=0;" edge="1" parent="1" source="824p-lf1ZnNUyni7ajF0-31" target="824p-lf1ZnNUyni7ajF0-72">
          <mxGeometry relative="1" as="geometry" />
        </mxCell>
        <mxCell id="824p-lf1ZnNUyni7ajF0-86" value="修改库存至&lt;div&gt;至少一个SKU为1&lt;/div&gt;" style="rounded=0;whiteSpace=wrap;html=1;spacingTop=0;" vertex="1" parent="1">
          <mxGeometry x="200" y="330" width="100" height="50" as="geometry" />
        </mxCell>
        <mxCell id="824p-lf1ZnNUyni7ajF0-97" value="前台售卖" style="rhombus;whiteSpace=wrap;html=1;rounded=0;fillColor=#ffe6cc;strokeColor=#d79b00;" vertex="1" parent="1">
          <mxGeometry x="1190" y="390" width="100" height="60" as="geometry" />
        </mxCell>
        <mxCell id="824p-lf1ZnNUyni7ajF0-104" style="edgeStyle=orthogonalEdgeStyle;rounded=0;orthogonalLoop=1;jettySize=auto;html=1;entryX=0.5;entryY=0;entryDx=0;entryDy=0;" edge="1" parent="1" source="824p-lf1ZnNUyni7ajF0-103" target="824p-lf1ZnNUyni7ajF0-97">
          <mxGeometry relative="1" as="geometry">
            <mxPoint x="1243.121212121212" y="400" as="targetPoint" />
          </mxGeometry>
        </mxCell>
        <mxCell id="824p-lf1ZnNUyni7ajF0-103" value="首单商品只有一个SKU有1库存" style="rounded=1;whiteSpace=wrap;html=1;" vertex="1" parent="1">
          <mxGeometry x="1020" y="300" width="90" height="40" as="geometry" />
        </mxCell>
      </root>
    </mxGraphModel>
  </diagram>
</mxfile>
